<svg width="43" height="42" viewBox="0 0 43 42" fill="none" xmlns="http://www.w3.org/2000/svg">
<g clip-path="url(#clip0_79_189)">
<path d="M33.75 1.75H9.25C6.93021 1.75278 4.70623 2.67554 3.06588 4.31588C1.42554 5.95623 0.502779 8.18021 0.5 10.5L0.5 31.5C0.502779 33.8198 1.42554 36.0438 3.06588 37.6841C4.70623 39.3245 6.93021 40.2472 9.25 40.25H33.75C36.0698 40.2472 38.2938 39.3245 39.9341 37.6841C41.5745 36.0438 42.4972 33.8198 42.5 31.5V10.5C42.4972 8.18021 41.5745 5.95623 39.9341 4.31588C38.2938 2.67554 36.0698 1.75278 33.75 1.75ZM9.25 5.25H33.75C34.7979 5.25206 35.8212 5.56765 36.6882 6.15616C37.5552 6.74466 38.2262 7.57916 38.615 8.55225L25.2135 21.9555C24.2273 22.9378 22.892 23.4893 21.5 23.4893C20.108 23.4893 18.7727 22.9378 17.7865 21.9555L4.385 8.55225C4.77376 7.57916 5.44482 6.74466 6.31183 6.15616C7.17884 5.56765 8.20213 5.25206 9.25 5.25ZM33.75 36.75H9.25C7.85761 36.75 6.52226 36.1969 5.53769 35.2123C4.55312 34.2277 4 32.8924 4 31.5V13.125L15.312 24.43C16.9546 26.0684 19.1799 26.9886 21.5 26.9886C23.8201 26.9886 26.0454 26.0684 27.688 24.43L39 13.125V31.5C39 32.8924 38.4469 34.2277 37.4623 35.2123C36.4777 36.1969 35.1424 36.75 33.75 36.75Z" fill="#BF1111"/>
</g>
<defs>
<clipPath id="clip0_79_189">
<rect width="42" height="42" fill="white" transform="translate(0.5)"/>
</clipPath>
</defs>
</svg>
