<svg width="41" height="38" viewBox="0 0 41 38" fill="none" xmlns="http://www.w3.org/2000/svg">
<g clip-path="url(#clip0_79_176)">
<path d="M20.5001 9.5C19.1486 9.5 17.8274 9.87144 16.7037 10.5674C15.58 11.2633 14.7041 12.2524 14.1869 13.4097C13.6697 14.5669 13.5344 15.8404 13.7981 17.0689C14.0617 18.2975 14.7125 19.4259 15.6682 20.3117C16.6238 21.1974 17.8414 21.8006 19.167 22.045C20.4925 22.2893 21.8665 22.1639 23.1151 21.6846C24.3637 21.2052 25.4309 20.3935 26.1818 19.3519C26.9327 18.3104 27.3334 17.0859 27.3334 15.8333C27.3334 14.1536 26.6135 12.5427 25.332 11.355C24.0505 10.1673 22.3124 9.5 20.5001 9.5ZM20.5001 19C19.8243 19 19.1638 18.8143 18.6019 18.4663C18.04 18.1184 17.6021 17.6238 17.3435 17.0452C17.0849 16.4665 17.0172 15.8298 17.1491 15.2155C17.2809 14.6013 17.6063 14.037 18.0841 13.5942C18.562 13.1513 19.1708 12.8497 19.8335 12.7275C20.4963 12.6053 21.1833 12.668 21.8076 12.9077C22.4319 13.1474 22.9655 13.5533 23.3409 14.074C23.7164 14.5948 23.9168 15.207 23.9168 15.8333C23.9168 16.6732 23.5568 17.4786 22.916 18.0725C22.2753 18.6664 21.4062 19 20.5001 19Z" fill="#BF1111"/>
<path d="M20.5 38.0002C19.0615 38.0071 17.6422 37.6944 16.3609 37.0883C15.0795 36.4823 13.9735 35.6005 13.1354 34.5169C6.62496 26.1933 3.32275 19.936 3.32275 15.9175C3.32275 11.6951 5.1325 7.64571 8.35387 4.66005C11.5752 1.6744 15.9443 -0.00292969 20.5 -0.00292969C25.0557 -0.00292969 29.4249 1.6744 32.6462 4.66005C35.8676 7.64571 37.6773 11.6951 37.6773 15.9175C37.6773 19.936 34.3751 26.1933 27.8647 34.5169C27.0266 35.6005 25.9206 36.4823 24.6392 37.0883C23.3579 37.6944 21.9386 38.0071 20.5 38.0002ZM20.5 3.45349C16.9338 3.45726 13.5147 4.77197 10.993 7.1092C8.4712 9.44643 7.0527 12.6153 7.04863 15.9207C7.04863 19.1032 10.2825 24.9884 16.1523 32.4918C16.6507 33.128 17.3044 33.6457 18.0601 34.0027C18.8157 34.3598 19.6519 34.5459 20.5 34.5459C21.3482 34.5459 22.1844 34.3598 22.94 34.0027C23.6957 33.6457 24.3494 33.128 24.8478 32.4918C30.7176 24.9884 33.9515 19.1032 33.9515 15.9207C33.9474 12.6153 32.5289 9.44643 30.0071 7.1092C27.4854 4.77197 24.0663 3.45726 20.5 3.45349Z" fill="#BF1111"/>
</g>
<defs>
<clipPath id="clip0_79_176">
<rect width="41" height="38" fill="white"/>
</clipPath>
</defs>
</svg>
