<svg width="24" height="24" viewBox="0 0 24 24" fill="none" xmlns="http://www.w3.org/2000/svg">
<g clip-path="url(#clip0_114_114)">
<path d="M12.9821 2.93128C12.9821 2.68468 13.0876 2.44819 13.2754 2.27382C13.4633 2.09945 13.718 2.00148 13.9837 2.00148C16.6393 2.00419 19.1853 2.98467 21.0631 4.72779C22.9409 6.47091 23.9971 8.83431 24 11.2995C24 11.5461 23.8945 11.7826 23.7066 11.9569C23.5188 12.1313 23.264 12.2293 22.9984 12.2293C22.7327 12.2293 22.478 12.1313 22.2901 11.9569C22.1023 11.7826 21.9967 11.5461 21.9967 11.2995C21.9944 9.32736 21.1494 7.43666 19.6471 6.04218C18.1449 4.64769 16.1082 3.86329 13.9837 3.86108C13.718 3.86108 13.4633 3.76312 13.2754 3.58875C13.0876 3.41438 12.9821 3.17788 12.9821 2.93128ZM13.9837 7.58027C15.0463 7.58027 16.0654 7.97211 16.8167 8.66959C17.5681 9.36708 17.9902 10.3131 17.9902 11.2995C17.9902 11.5461 18.0957 11.7826 18.2836 11.9569C18.4714 12.1313 18.7262 12.2293 18.9918 12.2293C19.2575 12.2293 19.5123 12.1313 19.7001 11.9569C19.8879 11.7826 19.9935 11.5461 19.9935 11.2995C19.9919 9.82033 19.3582 8.4022 18.2315 7.35629C17.1048 6.31039 15.5771 5.72215 13.9837 5.72067C13.718 5.72067 13.4633 5.81863 13.2754 5.99301C13.0876 6.16738 12.9821 6.40387 12.9821 6.65047C12.9821 6.89707 13.0876 7.13357 13.2754 7.30794C13.4633 7.48231 13.718 7.58027 13.9837 7.58027ZM23.0915 17.5654C23.672 18.1057 23.9979 18.8376 23.9979 19.6007C23.9979 20.3638 23.672 21.0957 23.0915 21.636L22.18 22.6114C13.9767 29.9019 -5.98582 11.3757 1.74677 3.73649L2.89864 2.80669C3.48136 2.28291 4.2628 1.99316 5.07389 2.00012C5.88498 2.00708 6.66051 2.31019 7.2327 2.84388C7.26375 2.87271 9.11977 5.11073 9.11977 5.11073C9.6705 5.6478 9.97707 6.36124 9.97577 7.10273C9.97446 7.84422 9.66538 8.55672 9.11276 9.09212L7.95287 10.4459C8.59477 11.8937 9.53852 13.2095 10.7299 14.3177C11.9213 15.4258 13.3368 16.3046 14.8952 16.9033L16.3626 15.8201C16.9394 15.3076 17.7068 15.021 18.5054 15.0199C19.3039 15.0189 20.0722 15.3035 20.6505 15.8146C20.6505 15.8146 23.0605 17.5365 23.0915 17.5654ZM21.7133 18.9173C21.7133 18.9173 19.3164 17.2055 19.2853 17.1767C19.079 16.9868 18.8001 16.8802 18.5096 16.8802C18.219 16.8802 17.9401 16.9868 17.7338 17.1767C17.7068 17.2027 15.6865 18.6969 15.6865 18.6969C15.5503 18.7975 15.3883 18.8635 15.2163 18.8882C15.0444 18.913 14.8685 18.8958 14.7059 18.8383C12.687 18.1405 10.8533 17.0482 9.32895 15.6352C7.80456 14.2222 6.62511 12.5216 5.87048 10.6486C5.80357 10.4956 5.78176 10.3288 5.80728 10.1654C5.83281 10.002 5.90475 9.84786 6.01572 9.7188C6.01572 9.7188 7.62534 7.84247 7.65238 7.8183C7.85698 7.62675 7.97178 7.36792 7.97178 7.09817C7.97178 6.82842 7.85698 6.56959 7.65238 6.37804C7.62133 6.35015 5.77733 4.12328 5.77733 4.12328C5.56789 3.94895 5.29455 3.85559 5.01333 3.86233C4.73212 3.86907 4.46434 3.97541 4.26487 4.15954L3.11299 5.08934C-2.53821 11.3971 14.761 26.5649 20.7157 21.3413L21.6281 20.365C21.842 20.1811 21.9704 19.9273 21.9863 19.6571C22.0022 19.387 21.9043 19.1217 21.7133 18.9173Z" fill="#636363"/>
</g>
<defs>
<clipPath id="clip0_114_114">
<rect width="24" height="24" fill="white"/>
</clipPath>
</defs>
</svg>
