<svg width="38" height="38" viewBox="0 0 38 38" fill="none" xmlns="http://www.w3.org/2000/svg">
<g clip-path="url(#clip0_79_183)">
<path d="M20.5835 1.58342C20.5835 1.16349 20.7503 0.760767 21.0472 0.463835C21.3442 0.166902 21.7469 8.71259e-05 22.1668 8.71259e-05C26.3647 0.00469715 30.3892 1.67433 33.3576 4.64265C36.3259 7.61098 37.9955 11.6356 38.0001 15.8334C38.0001 16.2533 37.8333 16.6561 37.5364 16.953C37.2395 17.2499 36.8367 17.4168 36.4168 17.4168C35.9969 17.4168 35.5942 17.2499 35.2972 16.953C35.0003 16.6561 34.8335 16.2533 34.8335 15.8334C34.8297 12.4752 33.494 9.25554 31.1193 6.8809C28.7447 4.50626 25.5251 3.17053 22.1668 3.16675C21.7469 3.16675 21.3442 2.99994 21.0472 2.70301C20.7503 2.40607 20.5835 2.00335 20.5835 1.58342ZM22.1668 9.50009C23.8465 9.50009 25.4574 10.1673 26.6451 11.3551C27.8329 12.5428 28.5001 14.1537 28.5001 15.8334C28.5001 16.2533 28.667 16.6561 28.9639 16.953C29.2608 17.2499 29.6635 17.4168 30.0835 17.4168C30.5034 17.4168 30.9061 17.2499 31.2031 16.953C31.5 16.6561 31.6668 16.2533 31.6668 15.8334C31.6643 13.3146 30.6626 10.8997 28.8815 9.11868C27.1005 7.33763 24.6856 6.33594 22.1668 6.33342C21.7469 6.33342 21.3442 6.50024 21.0472 6.79717C20.7503 7.0941 20.5835 7.49683 20.5835 7.91675C20.5835 8.33668 20.7503 8.73941 21.0472 9.03634C21.3442 9.33327 21.7469 9.50009 22.1668 9.50009ZM36.5641 26.5035C37.4816 27.4236 37.9969 28.67 37.9969 29.9694C37.9969 31.2688 37.4816 32.5152 36.5641 33.4353L35.1232 35.0963C22.1557 47.5112 -9.40011 15.9633 2.82322 2.95459L4.64406 1.37125C5.56519 0.479326 6.80045 -0.0140852 8.08259 -0.00223271C9.36473 0.00961975 10.5907 0.525783 11.4951 1.43459C11.5442 1.48367 14.4781 5.29475 14.4781 5.29475C15.3487 6.20933 15.8333 7.42422 15.8313 8.68689C15.8292 9.94956 15.3406 11.1629 14.4671 12.0746L12.6336 14.3799C13.6482 16.8453 15.1401 19.086 17.0234 20.9731C18.9067 22.8602 21.1443 24.3565 23.6076 25.3762L25.9272 23.5316C26.8391 22.6587 28.0522 22.1707 29.3144 22.1689C30.5767 22.1672 31.7912 22.6518 32.7055 23.5221C32.7055 23.5221 36.515 26.4544 36.5641 26.5035ZM34.3854 28.8057C34.3854 28.8057 30.5965 25.8908 30.5474 25.8417C30.2212 25.5182 29.7804 25.3368 29.3211 25.3368C28.8617 25.3368 28.421 25.5182 28.0948 25.8417C28.0521 25.886 24.8585 28.4304 24.8585 28.4304C24.6433 28.6017 24.3871 28.714 24.1153 28.7562C23.8435 28.7984 23.5654 28.7691 23.3084 28.6711C20.1171 27.4829 17.2185 25.6228 14.8088 23.2166C12.3991 20.8105 10.5347 17.9146 9.34181 14.7251C9.23604 14.4646 9.20156 14.1806 9.24191 13.9023C9.28225 13.624 9.39598 13.3615 9.57139 13.1418C9.57139 13.1418 12.1158 9.94659 12.1586 9.90542C12.482 9.57923 12.6635 9.13848 12.6635 8.67913C12.6635 8.21978 12.482 7.77903 12.1586 7.45284C12.1095 7.40534 9.19456 3.61325 9.19456 3.61325C8.86348 3.31639 8.4314 3.1574 7.98687 3.16889C7.54234 3.18037 7.11903 3.36145 6.80372 3.675L4.98289 5.25834C-3.95028 15.9997 23.3955 41.8286 32.8084 32.9334L34.2508 31.2709C34.5888 30.9578 34.7918 30.5256 34.817 30.0655C34.8421 29.6055 34.6873 29.1537 34.3854 28.8057Z" fill="#BF1111"/>
</g>
<defs>
<clipPath id="clip0_79_183">
<rect width="38" height="38" fill="white"/>
</clipPath>
</defs>
</svg>
