<svg width="56" height="56" viewBox="0 0 56 56" fill="none" xmlns="http://www.w3.org/2000/svg">
<path d="M44.3333 11.6666H39.487C38.703 7.22631 35.3967 3.56065 30.9143 2.40798C29.68 2.08831 28.3967 2.83965 28.0723 4.08565C27.7503 5.33398 28.504 6.60565 29.7523 6.92531C32.8417 7.72098 35 10.5093 35 13.706V39.6666H9.33333C6.75967 39.6666 4.66667 37.5736 4.66667 35V25.6666H10.5C11.7903 25.6666 12.8333 24.6213 12.8333 23.3333C12.8333 22.0453 11.7903 21 10.5 21H4.66667C2.093 21 0 23.093 0 25.6666V35C0 39.3866 3.04267 43.0756 7.12833 44.0696C7.04433 44.5386 7 45.017 7 45.5C7 50.0033 10.6633 53.6666 15.1667 53.6666C19.67 53.6666 23.3333 50.0033 23.3333 45.5C23.3333 45.1056 23.303 44.7183 23.247 44.3333H32.753C32.697 44.7183 32.6667 45.1056 32.6667 45.5C32.6667 50.0033 36.33 53.6666 40.8333 53.6666C45.3367 53.6666 49 50.0033 49 45.5C49 45.017 48.9557 44.5386 48.8717 44.0696C52.9573 43.0756 56 39.3866 56 35V23.3333C56 16.9003 50.7663 11.6666 44.3333 11.6666ZM51.3333 23.3333V25.6666H39.6667V16.3333H44.3333C48.1927 16.3333 51.3333 19.474 51.3333 23.3333ZM18.6667 45.5C18.6667 47.4296 17.0963 49 15.1667 49C13.237 49 11.6667 47.4296 11.6667 45.5C11.6667 45.059 11.753 44.6693 11.879 44.3333H18.4567C18.5827 44.6693 18.669 45.059 18.669 45.5H18.6667ZM40.8333 49C38.9037 49 37.3333 47.4296 37.3333 45.5C37.3333 45.059 37.4197 44.6693 37.5457 44.3333H44.1233C44.2493 44.6693 44.3357 45.059 44.3357 45.5C44.3357 47.4296 42.763 49 40.8333 49ZM46.6667 39.6666H39.6667V30.3333H51.3333V35C51.3333 37.5736 49.2403 39.6666 46.6667 39.6666ZM0 4.66665C0 3.37865 1.043 2.33331 2.33333 2.33331H21.3593C22.6497 2.33331 23.6927 3.37865 23.6927 4.66665C23.6927 5.95465 22.6497 6.99998 21.3593 6.99998H2.33333C1.043 6.99998 0 5.95465 0 4.66665ZM0 14C0 12.712 1.043 11.6666 2.33333 11.6666H16.6927C17.983 11.6666 19.026 12.712 19.026 14C19.026 15.288 17.983 16.3333 16.6927 16.3333H2.33333C1.043 16.3333 0 15.288 0 14Z" fill="#111419"/>
</svg>
