<svg width="56" height="56" viewBox="0 0 56 56" fill="none" xmlns="http://www.w3.org/2000/svg">
<g clip-path="url(#clip0_79_319)">
<path d="M43.1667 33.8333C45.0987 33.8333 46.6667 35.4013 46.6667 37.3333C46.6667 39.2653 45.0987 40.8333 43.1667 40.8333C41.2347 40.8333 39.6667 39.2653 39.6667 37.3333C39.6667 35.4013 41.2347 33.8333 43.1667 33.8333ZM53.6667 23.3333C52.3763 23.3333 51.3333 24.3787 51.3333 25.6667V49C51.3333 50.288 50.288 51.3333 49 51.3333H11.6667C7.80733 51.3333 4.66667 48.1927 4.66667 44.3333V21C4.66667 21 4.66667 20.9907 4.66667 20.9883C6.65933 22.4817 9.107 23.3333 11.6643 23.3333H30.3333C31.6237 23.3333 32.6667 22.288 32.6667 21C32.6667 19.712 31.6237 18.6667 30.3333 18.6667H11.6667C9.66933 18.6667 7.80967 17.7777 6.49367 16.324C7.77467 14.9077 9.60867 14 11.6667 14H28C29.2903 14 30.3333 12.9547 30.3333 11.6667C30.3333 10.3787 29.2903 9.33333 28 9.33333H11.6667C5.18933 9.31933 0.0466667 14.7093 0 21V44.3333C0 50.7663 5.23367 56 11.6667 56H49C52.8593 56 56 52.8593 56 49V25.6667C56 24.3787 54.957 23.3333 53.6667 23.3333ZM40.8263 21.8983C42.728 23.8 45.8383 23.8163 47.7423 21.9193L52.9597 16.8397C53.8837 15.9413 53.9023 14.4643 53.0063 13.5403C52.1033 12.6163 50.6263 12.5953 49.707 13.496L46.6667 16.4547V2.33333C46.6667 1.04533 45.6237 0 44.3333 0C43.043 0 42 1.04533 42 2.33333V16.4967L38.9737 13.5077C38.0543 12.6023 36.582 12.6093 35.672 13.5287C34.7667 14.4457 34.776 15.9227 35.693 16.828L40.8263 21.8983Z" fill="#111419"/>
</g>
<defs>
<clipPath id="clip0_79_319">
<rect width="56" height="56" fill="white"/>
</clipPath>
</defs>
</svg>
